<svg width="546" height="378" viewBox="0 0 546 378" fill="none" xmlns="http://www.w3.org/2000/svg">
<g clip-path="url(#clip0_15_95)">
<path d="M49.3468 164.91C39.2385 173.18 55.7793 245.776 55.7793 245.776C55.7793 245.776 59.455 356.508 67.266 361.562C75.0769 366.616 92.5367 361.103 99.4287 360.184C106.321 359.265 100.348 290.804 90.2393 265.533C80.1311 240.263 87.942 203.505 87.942 203.505L142.619 214.073C142.619 214.073 109.537 242.101 110.915 248.074C112.294 254.047 147.673 274.263 154.105 275.182C160.538 276.101 172.944 238.425 183.971 212.695C194.998 186.964 108.618 170.424 108.618 170.424L96.6719 147.91C96.6719 147.91 59.4551 156.64 49.3468 164.91Z" fill="#2F2E41"/>
<path d="M76.7882 363.469C76.7882 363.469 73.4541 375.138 76.7882 375.138C80.1224 375.138 86.235 378.472 95.6818 377.361C105.129 376.25 102.35 364.58 95.6818 362.913C89.0135 361.246 90.6806 347.909 90.6806 347.909C88.4578 343.464 77.8996 349.021 77.8996 349.021L76.7882 363.469Z" fill="#2F2E41"/>
<path d="M124.124 270.672C124.124 270.672 118.404 281.376 121.663 282.079C124.922 282.782 130.194 287.33 139.663 288.236C149.131 289.142 148.876 277.149 142.71 274.113C136.543 271.077 140.985 258.392 140.985 258.392C139.75 253.578 128.257 256.783 128.257 256.783L124.124 270.672Z" fill="#2F2E41"/>
<path d="M55.5493 65.4352C56.4682 67.2731 52.333 90.2464 52.333 90.2464L56.0088 96.679C56.0088 96.679 77.1443 88.4086 73.928 87.0302C70.7117 85.6518 71.1712 68.6515 71.1712 68.6515C71.1712 68.6515 54.6304 63.5973 55.5493 65.4352Z" fill="#FFB9B9"/>
<path d="M63.5047 72.5166C79.0635 72.5166 91.6764 59.9037 91.6764 44.3449C91.6764 28.7861 79.0635 16.1732 63.5047 16.1732C47.9459 16.1732 35.333 28.7861 35.333 44.3449C35.333 59.9037 47.9459 72.5166 63.5047 72.5166Z" fill="#2F2E41"/>
<path d="M61.5618 29.6289C67.9999 29.6289 73.219 24.4098 73.219 17.9717C73.219 11.5336 67.9999 6.31445 61.5618 6.31445C55.1237 6.31445 49.9045 11.5336 49.9045 17.9717C49.9045 24.4098 55.1237 29.6289 61.5618 29.6289Z" fill="#2F2E41"/>
<path d="M66.6616 23.2515C67.065 23.2934 67.4704 23.3144 67.8759 23.3145C69.4068 23.3145 70.9227 23.013 72.337 22.4272C73.7513 21.8414 75.0364 20.9827 76.1189 19.9002C77.2013 18.8177 78.06 17.5326 78.6458 16.1183C79.2317 14.704 79.5332 13.1881 79.5332 11.6573C79.5332 10.1264 79.2317 8.61055 78.6458 7.19622C78.06 5.7819 77.2013 4.49681 76.1189 3.41434C75.0364 2.33186 73.7513 1.47319 72.337 0.887356C70.9227 0.301524 69.4068 -4.5623e-08 67.8759 0C67.4704 0.000104308 67.065 0.0211403 66.6616 0.0630261C69.5274 0.363286 72.1805 1.71427 74.1089 3.85533C76.0374 5.99638 77.1046 8.77577 77.1046 11.6573C77.1046 14.5388 76.0374 17.3182 74.1089 19.4592C72.1805 21.6003 69.5274 22.9513 66.6616 23.2515Z" fill="#2F2E41"/>
<path d="M64.2793 77.3814C74.9371 77.3814 83.577 68.7416 83.577 58.0838C83.577 47.426 74.9371 38.7861 64.2793 38.7861C53.6215 38.7861 44.9817 47.426 44.9817 58.0838C44.9817 68.7416 53.6215 77.3814 64.2793 77.3814Z" fill="#FFB9B9"/>
<path d="M36.4815 87.7194C30.5084 89.0978 20.4001 103.801 20.4001 103.801L36.4815 119.882C36.4815 119.882 47.9682 163.072 49.3466 164.91C58.377 176.95 98.9691 150.207 98.9691 150.207C98.9691 150.207 97.361 137.112 98.2799 130.68C99.1638 124.493 94.834 112.071 94.834 112.071C94.834 112.071 109.996 105.639 106.78 99.2061C103.564 92.7735 83.8067 78.0706 75.5363 83.1247C67.2659 88.1789 50.7251 83.1247 50.7251 83.1247C50.7251 83.1247 42.4546 86.341 36.4815 87.7194Z" fill="#E6E6E6"/>
<path d="M153.875 180.302C153.875 180.302 180.065 202.816 186.498 198.221C192.93 193.627 161.686 177.545 161.686 177.545L153.875 180.302Z" fill="#FFB9B9"/>
<path d="M36.2517 172.491C39.9274 176.626 57.3872 166.059 55.1488 161.366C52.9104 156.672 39.0085 166.059 39.0085 166.059C39.0085 166.059 32.5759 168.356 36.2517 172.491Z" fill="#FFB9B9"/>
<path d="M36.4815 110.233L17.1839 146.072C17.1839 146.072 39.2383 164.45 41.9951 164.91C44.7519 165.369 36.4815 177.316 36.4815 177.316C36.4815 177.316 11.6702 159.856 2.0214 151.126C-7.62742 142.396 20.4001 103.801 20.4001 103.801L28.6705 98.7466L36.4815 110.233Z" fill="#E6E6E6"/>
<path d="M92.5366 108.855L115.051 143.774C115.051 143.774 149.511 182.37 154.105 184.208C158.7 186.045 164.214 177.316 164.214 177.316L122.861 127.234L107.24 99.206L101.267 96.9087L92.5366 108.855Z" fill="#E6E6E6"/>
<path d="M63.5044 46.8128C74.2347 46.8128 82.9332 41.5937 82.9332 35.1556C82.9332 28.7174 74.2347 23.4983 63.5044 23.4983C52.7742 23.4983 44.0757 28.7174 44.0757 35.1556C44.0757 41.5937 52.7742 46.8128 63.5044 46.8128Z" fill="#2F2E41"/>
<path d="M118.009 286.674C117.372 286.675 116.761 286.928 116.311 287.378C115.861 287.829 115.608 288.439 115.607 289.076V370.993C115.608 371.63 115.861 372.241 116.311 372.691C116.761 373.141 117.372 373.394 118.009 373.395H397.333C397.97 373.394 398.581 373.141 399.031 372.691C399.481 372.241 399.734 371.63 399.735 370.993V289.076C399.734 288.439 399.481 287.829 399.031 287.378C398.581 286.928 397.97 286.675 397.333 286.674L118.009 286.674Z" fill="#E6E6E6"/>
<path d="M121.626 367.376H393.716V292.693H121.626V367.376Z" fill="white"/>
<path d="M359.372 351.883C358.849 351.882 358.331 351.985 357.848 352.184C357.364 352.384 356.925 352.677 356.555 353.047C356.185 353.416 355.892 353.855 355.692 354.338C355.492 354.821 355.388 355.339 355.388 355.861C355.388 356.384 355.492 356.902 355.692 357.385C355.892 357.868 356.185 358.307 356.555 358.676C356.925 359.046 357.364 359.339 357.848 359.538C358.331 359.738 358.849 359.841 359.372 359.84H375.286C376.341 359.84 377.353 359.421 378.099 358.675C378.845 357.929 379.264 356.917 379.264 355.861C379.264 354.806 378.845 353.794 378.099 353.048C377.353 352.302 376.341 351.883 375.286 351.883H359.372Z" fill="#6C63FF"/>
<path d="M379.264 344.166H195.557V345.213H379.264V344.166Z" fill="#E6E6E6"/>
<path d="M157.157 353.207C169.955 353.207 180.329 342.832 180.329 330.035C180.329 317.237 169.955 306.862 157.157 306.862C144.359 306.862 133.984 317.237 133.984 330.035C133.984 342.832 144.359 353.207 157.157 353.207Z" fill="#6C63FF"/>
<path d="M195.848 338.321L195.267 337.45L214.357 324.723L227.447 331.007L246.277 318.977L283.732 334.954L313.559 320.302L342.523 332.045L378.917 299.81L379.611 300.594L342.732 333.259L313.6 321.448L283.762 336.106L246.374 320.157L227.52 332.203L214.441 325.926L195.848 338.321Z" fill="#3F3D56"/>
<path d="M198.959 352.43C198.512 352.43 198.069 352.517 197.656 352.688C197.243 352.859 196.867 353.109 196.551 353.425C196.235 353.741 195.984 354.116 195.812 354.529C195.641 354.942 195.553 355.385 195.553 355.832C195.553 356.279 195.641 356.722 195.812 357.135C195.984 357.548 196.235 357.923 196.551 358.239C196.867 358.555 197.243 358.806 197.656 358.976C198.069 359.147 198.512 359.235 198.959 359.234H234.549C235.451 359.233 236.315 358.874 236.952 358.236C237.589 357.598 237.947 356.734 237.947 355.832C237.947 354.931 237.589 354.066 236.952 353.428C236.315 352.79 235.451 352.431 234.549 352.43H198.959Z" fill="#E6E6E6"/>
<path d="M166.007 319.668H169.628L162.094 327.124C160.778 328.421 159.004 329.148 157.156 329.148C155.308 329.148 153.534 328.421 152.218 327.124L144.685 319.668H148.306L154.029 325.332C154.862 326.154 155.986 326.614 157.156 326.614C158.327 326.614 159.45 326.154 160.284 325.332L166.007 319.668ZM148.259 340.401H144.639L152.219 332.899C153.535 331.602 155.309 330.875 157.157 330.875C159.005 330.875 160.779 331.602 162.095 332.899L169.675 340.401H166.054L160.284 334.691C159.45 333.869 158.327 333.409 157.156 333.409C155.986 333.409 154.862 333.869 154.029 334.691L148.259 340.401Z" fill="white"/>
<path d="M154.382 24.2846C153.745 24.2853 153.134 24.5386 152.684 24.9889C152.234 25.4391 151.98 26.0496 151.98 26.6864V108.604C151.98 109.241 152.234 109.851 152.684 110.301C153.134 110.752 153.745 111.005 154.382 111.006H433.706C434.343 111.005 434.953 110.752 435.404 110.301C435.854 109.851 436.107 109.241 436.108 108.604V26.6863C436.107 26.0496 435.854 25.4391 435.404 24.9888C434.953 24.5386 434.343 24.2853 433.706 24.2845L154.382 24.2846Z" fill="#E6E6E6"/>
<path d="M157.999 104.987H430.089V30.3033H157.999V104.987Z" fill="white"/>
<path d="M395.745 89.4934C394.689 89.4934 393.677 89.9126 392.931 90.6587C392.185 91.4048 391.766 92.4167 391.766 93.4719C391.766 94.5271 392.185 95.539 392.931 96.2851C393.677 97.0312 394.689 97.4504 395.745 97.4504H411.658C412.714 97.4504 413.726 97.0312 414.472 96.2851C415.218 95.539 415.637 94.5271 415.637 93.4719C415.637 92.4167 415.218 91.4048 414.472 90.6587C413.726 89.9126 412.714 89.4934 411.658 89.4934H395.745Z" fill="#6C63FF"/>
<path d="M415.637 81.7764H231.93V82.8231H415.637V81.7764Z" fill="#E6E6E6"/>
<path d="M193.53 90.8176C206.328 90.8176 216.702 80.4429 216.702 67.6451C216.702 54.8472 206.328 44.4725 193.53 44.4725C180.732 44.4725 170.357 54.8472 170.357 67.6451C170.357 80.4429 180.732 90.8176 193.53 90.8176Z" fill="#6C63FF"/>
<path d="M232.22 75.9311L231.64 75.0601L250.729 62.3337L263.82 68.6173L282.649 56.5877L282.903 56.6958L320.105 72.5652L349.932 57.913L378.896 69.6553L415.29 37.4203L415.984 38.2039L379.104 70.8691L349.973 59.0591L320.135 73.7163L282.747 57.7674L263.893 69.8132L250.814 63.5352L232.22 75.9311Z" fill="#3F3D56"/>
<path d="M235.332 90.0408C234.431 90.0419 233.566 90.4009 232.929 91.0387C232.292 91.6766 231.935 92.5413 231.935 93.4428C231.935 94.3443 232.292 95.2089 232.929 95.8468C233.566 96.4846 234.431 96.8436 235.332 96.8447H270.922C271.824 96.8447 272.69 96.4863 273.328 95.8483C273.966 95.2103 274.324 94.345 274.324 93.4428C274.324 92.5405 273.966 91.6752 273.328 91.0372C272.69 90.3992 271.824 90.0408 270.922 90.0408H235.332Z" fill="#E6E6E6"/>
<path d="M202.853 64.9405C203.286 62.0407 201.079 60.4818 198.06 59.4419L199.039 55.5138L196.647 54.9179L195.694 58.7425C195.066 58.5859 194.42 58.4381 193.779 58.2917L194.739 54.4418L192.349 53.8459L191.369 57.7727C190.849 57.6542 190.338 57.5371 189.842 57.4138L189.845 57.4016L186.548 56.5782L185.912 59.132C185.912 59.132 187.686 59.5386 187.648 59.5638C187.979 59.6034 188.281 59.7713 188.49 60.0314C188.698 60.2914 188.796 60.6229 188.762 60.9544L187.647 65.4294C187.731 65.4505 187.814 65.4771 187.895 65.5091L187.643 65.4464L186.079 71.7152C186.045 71.8247 185.989 71.9262 185.915 72.014C185.842 72.1019 185.751 72.1743 185.649 72.2271C185.547 72.2798 185.436 72.312 185.322 72.3216C185.208 72.3313 185.093 72.3182 184.983 72.2832C185.007 72.3179 183.245 71.8494 183.245 71.8494L182.058 74.5871L185.171 75.3628C185.749 75.5079 186.317 75.6597 186.875 75.8027L185.885 79.7765L188.273 80.3724L189.254 76.4415C189.906 76.6186 190.539 76.782 191.159 76.936L190.182 80.8484L192.573 81.4443L193.563 77.4787C197.64 78.2503 200.707 77.9391 201.996 74.2521C203.036 71.2828 201.945 69.57 199.8 68.4525C201.362 68.0909 202.539 67.0632 202.853 64.9404L202.853 64.9405ZM197.389 72.6013C196.65 75.5705 191.651 73.966 190.03 73.5629L191.343 68.2993C192.964 68.7038 198.16 69.5047 197.39 72.6013H197.389ZM198.128 64.8976C197.454 67.5985 193.293 66.2262 191.943 65.8898L193.133 61.1159C194.484 61.4523 198.831 62.0802 198.128 64.8976Z" fill="white"/>
<path d="M264.274 155.479C263.637 155.48 263.026 155.733 262.576 156.184C262.126 156.634 261.873 157.244 261.872 157.881V239.799C261.873 240.435 262.126 241.046 262.576 241.496C263.026 241.946 263.637 242.2 264.274 242.2H543.598C544.235 242.2 544.845 241.946 545.296 241.496C545.746 241.046 545.999 240.435 546 239.799V157.881C545.999 157.244 545.746 156.634 545.296 156.184C544.845 155.733 544.235 155.48 543.598 155.479L264.274 155.479Z" fill="#E6E6E6"/>
<path d="M267.891 236.182H539.981V161.498H267.891V236.182Z" fill="white"/>
<path d="M505.637 220.688C504.582 220.688 503.57 221.107 502.823 221.853C502.077 222.599 501.658 223.611 501.658 224.667C501.658 225.722 502.077 226.734 502.823 227.48C503.57 228.226 504.582 228.645 505.637 228.645H521.551C522.606 228.645 523.618 228.226 524.364 227.48C525.11 226.734 525.529 225.722 525.529 224.667C525.529 223.611 525.11 222.599 524.364 221.853C523.618 221.107 522.606 220.688 521.551 220.688H505.637Z" fill="#6C63FF"/>
<path d="M525.529 212.971H341.822V214.018H525.529V212.971Z" fill="#E6E6E6"/>
<path d="M303.422 222.012C316.219 222.012 326.594 211.638 326.594 198.84C326.594 186.042 316.219 175.667 303.422 175.667C290.624 175.667 280.249 186.042 280.249 198.84C280.249 211.638 290.624 222.012 303.422 222.012Z" fill="#6C63FF"/>
<path d="M342.113 207.126L341.532 206.255L360.621 193.529L373.712 199.812L392.541 187.783L392.796 187.891L429.996 203.76L459.824 189.108L488.788 200.85L525.182 168.615L525.876 169.399L488.997 202.064L459.865 190.254L430.027 204.911L392.64 188.962L373.785 201.008L360.706 194.731L342.113 207.126Z" fill="#3F3D56"/>
<path d="M345.224 221.235C344.322 221.235 343.457 221.594 342.819 222.232C342.181 222.87 341.822 223.735 341.822 224.637C341.822 225.54 342.181 226.405 342.819 227.043C343.457 227.681 344.322 228.039 345.224 228.039H380.814C381.716 228.039 382.582 227.681 383.22 227.043C383.858 226.405 384.216 225.54 384.216 224.637C384.216 223.735 383.858 222.87 383.22 222.232C382.582 221.594 381.716 221.235 380.814 221.235H345.224Z" fill="#E6E6E6"/>
<path d="M303.419 214.112L312.8 200.901L303.419 206.44L294.044 200.901L303.419 214.112H303.419Z" fill="white"/>
<path d="M303.419 204.665H303.419L312.794 199.123L303.419 183.568H303.419L294.044 199.123L303.419 204.665Z" fill="white"/>
</g>
<defs>
<clipPath id="clip0_15_95">
<rect width="546" height="377.588" fill="white"/>
</clipPath>
</defs>
</svg>
