<svg id="Layer_3" data-name="Layer 3" xmlns="http://www.w3.org/2000/svg" viewBox="0 0 572.826 512.288">
  <g>
    <path d="M560.939,344.8a271.423,271.423,0,0,1-56.823,166.609H72.494A271.423,271.423,0,0,1,15.671,344.8c0-150.573,122.067-272.628,272.64-272.628S560.939,194.231,560.939,344.8Z" fill="#fff"></path>
    <path d="M560.939,344.8a271.423,271.423,0,0,1-56.823,166.609H72.494A271.423,271.423,0,0,1,15.671,344.8c0-150.573,122.067-272.628,272.64-272.628S560.939,194.231,560.939,344.8Z" fill="#367cff" opacity="0.1"></path>
    <g>
      <g>
        <path d="M423,512.288H308.325l-6.881-91.524L418.892,424.9s1.421-10.671,1.492,9.557C420.431,448.489,423.362,476.308,423,512.288Z" fill="#262626"></path>
        <path d="M350.024,415.506c-.106,2.179-.225,4.37-.367,6.549A583.3,583.3,0,0,1,337.1,512.288H222.486c1.492-46.472,2.736-83.281,2.736-83.281l76.222-8.243,4.571-.5Z" fill="#262626"></path>
      </g>
      <g>
        <path d="M377.667,105.365s1.3,29.935,7.767,40.936c18.632,31.669,23.423,66.919,3.61,84.815s-143.47,15.273-151.855-27.146c-7.059-35.713,9.954-39.14,14.754-68.353,2.172-13.218,7.945-40.908,7.945-40.908" fill="#0a0a0a"></path>
        <path id="sk" d="M271.861,199.308c.213-.028,2.582,39.284,48.251,35.857,31.617-2.369,42.89-35.913,43.614-35.913-3.409-.724-9.149-1.778-10.663-2.586-4.978-2.675-11.138-5.458-12.743-15.126-.925-5.573.644-34.08.161-39.718L291.95,152.654c.678,11.908,5.425,39.511-11.21,44.4C277.972,197.859,274.991,198.6,271.861,199.308Z" fill="#E98862"></path>
        <path id="sh" d="M291.27,185.77a35.119,35.119,0,0,0,1.46-7.532,80.308,80.308,0,0,0-.317-17.519,53.2,53.2,0,0,0,26.822-11.752c.9,3.328,5.857,17.87,4.485,21.033C321.126,175.979,308.938,185.77,291.27,185.77Z" fill="#0c0c0c" opacity="0.52"></path>
        <path d="M295.617,173.346c19.086,2.3,44.014-4.779,49.734-30.134l5.161-22.877c5.72-25.354-2.96-48.912-26.832-54.3h0c-23.872-5.386-46.353,11.143-52.073,36.5l-2.285,10.128C267.128,122.39,261.565,169.249,295.617,173.346Z" fill="#E98862"></path>
        <path d="M291.053,145.337a23.385,23.385,0,0,1,10.5,2.712.572.572,0,0,1-.515,1.021c-6.988-3.524-13.54-3.494-18.947.087a3.917,3.917,0,0,1-.339.21.572.572,0,0,1-.5-1.027c.043-.024.114-.072.212-.137A17.14,17.14,0,0,1,291.053,145.337Z" fill="#0c0c0c"></path>
        <path d="M290.121,137.575l-.048,0a27.049,27.049,0,0,1-2.912-.609c-1.433-.393-3.315-1.065-3.13-2.351.212-1.466,6.515-16.7,7.233-18.432a.618.618,0,1,1,1.141.474c-2.689,6.487-7.009,17.148-7.151,18.135.179.446,2.561,1.207,5,1.56a.618.618,0,0,1-.129,1.228Z" fill="#0c0c0c"></path>
        <path d="M369.457,129.031l-21.4-4.7c-16.084-7.171-20.033-35.586-20.033-35.586s-20.49,18.624-68.131,5.964c0,0,11.964-66.637,82.233-44.69,22.658,7.077,38.273,30.7,35.153,61.443C375.088,133,369.457,129.031,369.457,129.031Z" fill="#0a0a0a"></path>
        <path d="M342.125,150.6c7.255,1.637,14.887-4.8,16.524-12.052s-3.342-12.583-10.6-14.219l-4.835,4.017L335.888,149.2Z" fill="#E98862"></path>
        <path d="M287.362,102.64a14.158,14.158,0,0,0-7.047-2.5,12.47,12.47,0,0,0-3.718.263,14.715,14.715,0,0,0-3.479,1.24.645.645,0,0,0,.52,1.18l.046-.019a13.35,13.35,0,0,1,3.188-.974,10.944,10.944,0,0,1,3.291-.083,12.411,12.411,0,0,1,5.987,2.4l.056.045a.969.969,0,0,0,1.191-1.529Z" fill="#0c0c0c"></path>
        <path d="M306.059,106.974a12.4,12.4,0,0,1,6.44.372,10.963,10.963,0,0,1,2.943,1.475,13.316,13.316,0,0,1,2.471,2.237l.033.036a.645.645,0,0,0,.973-.846,14.713,14.713,0,0,0-2.622-2.6,12.439,12.439,0,0,0-3.252-1.819,14.15,14.15,0,0,0-7.441-.736.969.969,0,1,0,.341,1.907l.04-.008Z" fill="#0c0c0c"></path>
        <path d="M348.015,124.056l.234-.589c-26.951-10.749-19.343-37.3-19.264-37.568l-.606-.182C328.3,85.989,320.517,113.089,348.015,124.056Z" fill="#0c0c0c"></path>
        <circle cx="275.762" cy="110.407" r="3.014" fill="#0c0c0c"></circle>
        <circle cx="305.555" cy="115.535" r="3.014" fill="#0c0c0c"></circle>
        <ellipse cx="309.148" cy="136.077" rx="4.212" ry="5.742" transform="translate(130.679 422.85) rotate(-81.862)" fill="#0c0c0c" opacity="0.1"></ellipse>
        <path d="M275.505,130.242c-.335,2.3-3.146,3.8-6.286,3.356a7.959,7.959,0,0,1-1.59-.4c-.083-2.753-.03-5.4.108-7.844a7.251,7.251,0,0,1,2.679-.095C273.555,125.7,275.832,127.934,275.505,130.242Z" fill="#0c0c0c" opacity="0.1"></path>
      </g>
      <g>
        <g>
          <path d="M51.529,197a4.5,4.5,0,0,1,4.6-2.434.346.346,0,0,1,.42-.387l-3.119-2.236a4.681,4.681,0,0,1-1.544-5.954,4.508,4.508,0,0,1,5.7-2.017c-.008-.044.022-.086.029-.131l-1.282-.919a4.623,4.623,0,0,1-1.625-5.617,4.516,4.516,0,0,1,6.746-1.814l2.957,2.12c.009-.018,0-.038.012-.055s.044-.022.061-.04a4.505,4.505,0,0,1-.3-5.617c1.4-2.246,4.618-1.787,6.531-.417l17.406,12.024-3.111-5.238A4.684,4.684,0,0,1,86.251,172a4.512,4.512,0,0,1,6.388,1.445l16.989,28.6a14.993,14.993,0,0,1-4.87,20.324h0a22.722,22.722,0,0,1-25.392-.729L53.079,202.8A4.833,4.833,0,0,1,51.529,197Z" fill="#E98862"></path>
          <g opacity="0.25">
            <path d="M81.64,189.5a.417.417,0,0,1-.574.1L64.527,178.138a.417.417,0,1,1,.475-.685l16.539,11.456a.417.417,0,0,1,.105.579Z" fill="#0c0c0c"></path>
          </g>
          <g opacity="0.25">
            <path d="M76.789,196.93a.417.417,0,0,1-.574.1L57.758,184.242a.417.417,0,0,1-.106-.579.431.431,0,0,1,.58-.105L76.69,196.343a.417.417,0,0,1,.105.579Z" fill="#0c0c0c"></path>
          </g>
          <g opacity="0.25">
            <path d="M71.581,205.011a.415.415,0,0,1-.573.1l-14.724-10.2a.417.417,0,0,1,.474-.685l14.724,10.2a.417.417,0,0,1,.105.58Z" fill="#0c0c0c"></path>
          </g>
        </g>
        <path d="M117.118,191.726,159.4,289.371l58.34-79.847L268.3,255.1,181.962,366.916l-.566.8a34.519,34.519,0,0,1-58.424-4.276l-60.8-141.151Z" fill="#367cff"></path>
        <path d="M164.294,299.588a.633.633,0,0,0,.564-.922l-4.891-9.583a.634.634,0,0,0-1.129.576l4.891,9.584A.633.633,0,0,0,164.294,299.588Z" fill="#0c0c0c"></path>
        <path d="M215.119,285.855c1.439,16.9,8.436,122.334,9.819,143.15H420.285c1.077-18.775,1.174-100.869,5.258-137.582,3.9-35.033,11.544-52.573,5.939-62.93-9.16-16.927-22.314-32.193-47.534-34.3-10.48-.877-29.818,2.862-29.818,2.862S352.8,223.9,321.157,225.393c-43.079,2.033-40.216-28.269-40.416-28.342-8.88-3.247-39.789-4.9-53.4,4.09C201.371,218.289,212.066,250.042,215.119,285.855Z" fill="#367cff"></path>
        <rect x="216.07" y="296.838" width="1.267" height="26.88" transform="translate(-17.232 12.777) rotate(-3.248)" fill="#0c0c0c"></rect>
        <g>
          <path d="M572.218,208.849a4.5,4.5,0,0,0-4.8-2,.346.346,0,0,0-.454-.346l2.9-2.514a4.681,4.681,0,0,0,.989-6.071,4.51,4.51,0,0,0-5.862-1.483c0-.045-.029-.084-.04-.128l1.191-1.033a4.622,4.622,0,0,0,1.1-5.743,4.516,4.516,0,0,0-6.884-1.185l-2.75,2.383c-.01-.017,0-.038-.016-.053s-.046-.018-.064-.034a4.508,4.508,0,0,0-.222-5.621c-1.6-2.108-4.764-1.354-6.541.186l-16.226,13.576,2.616-5.5a4.683,4.683,0,0,0-1.812-6.132,4.511,4.511,0,0,0-6.228,2.027l-14.282,30.043a14.994,14.994,0,0,0,6.72,19.79h0a22.724,22.724,0,0,0,25.218-3.065l24.44-21.183A4.83,4.83,0,0,0,572.218,208.849Z" fill="#E98862"></path>
          <g opacity="0.25">
            <path d="M541.544,204.148a.417.417,0,0,0,.58.044l15.414-12.93a.416.416,0,1,0-.535-.638l-15.414,12.93a.416.416,0,0,0-.051.586Z" fill="#0c0c0c"></path>
          </g>
          <g opacity="0.25">
            <path d="M547.059,211.1a.416.416,0,0,0,.58.044l17.2-14.43a.418.418,0,0,0,.052-.587.432.432,0,0,0-.587-.051l-17.2,14.43a.417.417,0,0,0-.051.587Z" fill="#0c0c0c"></path>
          </g>
          <g opacity="0.25">
            <path d="M552.989,218.671a.417.417,0,0,0,.58.044L567.291,207.2a.416.416,0,0,0-.535-.638l-13.722,11.511a.416.416,0,0,0-.051.586Z" fill="#0c0c0c"></path>
          </g>
        </g>
        <path d="M508.127,207.589l-32.144,82.433-46.933-65.9L378.5,269.7l72.393,110.546.566.8a34.52,34.52,0,0,0,58.425-4.276l51.93-139.883Z" fill="#367cff"></path>
        <path d="M471.092,300.24a.635.635,0,0,1-.565-.923l4.891-9.583a.634.634,0,0,1,1.129.577l-4.891,9.583A.633.633,0,0,1,471.092,300.24Z" fill="#0c0c0c"></path>
      </g>
    </g>
    <path d="M531.864,512.282H50.881a1.185,1.185,0,0,1,0-2.369H531.864a1.185,1.185,0,0,1,0,2.369Z" fill="#292a2e"></path>
    <g>
      <path d="M162.841,131.272V10.245A10.245,10.245,0,0,0,152.6,0H10.245A10.245,10.245,0,0,0,0,10.245v90.242a10.245,10.245,0,0,0,10.245,10.245H125.917l32.262,22.945A2.951,2.951,0,0,0,162.841,131.272Z" fill="#0cbc8b"></path>
      <g>
        <circle cx="77.039" cy="89.78" r="6.27" fill="#fff"></circle>
        <path d="M76.747,76.172a4.082,4.082,0,0,1-4.081-4.082V56.93a4.081,4.081,0,0,1,3.124-3.967c.177-.044,18.436-4.665,18.436-16.952,0-7.71-6.321-13.1-15.371-13.1-9.8,0-14.838,9.8-15.047,10.214a4.082,4.082,0,0,1-7.317-3.619c.3-.6,7.434-14.757,22.364-14.757,13.636,0,23.533,8.939,23.533,21.257,0,14.845-14.9,21.645-21.559,23.943V72.09A4.083,4.083,0,0,1,76.747,76.172Z" fill="#fff"></path>
      </g>
    </g>
  </g>
</svg>