<svg id="Layer_1" data-name="Layer 1" xmlns="http://www.w3.org/2000/svg" viewBox="0 0 700.509 620.375">
  <g>
    <g>
      <path d="M409.549,225.171s-1.044-55.835,49.435-55.835c53.217,0,43.362-37.784,94.7-34.7,34.7,2.087,43.7,38.735,63.653,44.15s38.739,11.986,38.739,45.328Z" fill="#fff"></path>
      <path d="M518.63,503.891S517.86,462.7,555.1,462.7c39.263,0,31.992-27.876,69.865-25.6,25.6,1.54,32.237,28.578,46.961,32.573s28.581,8.843,28.581,33.443Z" fill="#fff"></path>
      <path d="M0,315.109S-.926,265.5,43.922,265.5c47.281,0,38.525-33.569,84.133-30.825,30.825,1.854,38.821,34.414,56.552,39.225s34.418,10.649,34.418,40.272Z" fill="#fff"></path>
      <path d="M409.549,225.171s-1.044-55.835,49.435-55.835c53.217,0,43.362-37.784,94.7-34.7,34.7,2.087,43.7,38.735,63.653,44.15s38.739,11.986,38.739,45.328Z" fill="#367cff" opacity="0.1"></path>
      <path d="M518.63,503.891S517.86,462.7,555.1,462.7c39.263,0,31.992-27.876,69.865-25.6,25.6,1.54,32.237,28.578,46.961,32.573s28.581,8.843,28.581,33.443Z" fill="#367cff" opacity="0.1"></path>
      <path d="M0,315.109S-.926,265.5,43.922,265.5c47.281,0,38.525-33.569,84.133-30.825,30.825,1.854,38.821,34.414,56.552,39.225s34.418,10.649,34.418,40.272Z" fill="#367cff" opacity="0.1"></path>
    </g>
    <g>
      <g>
        <path d="M524.5,104.813a5.42,5.42,0,0,1,1.987-7.612,5.626,5.626,0,0,1,7.376,2.144l3.868,6.213-1.871-21.836c-.4-2.8.886-6.487,4.053-6.735,2.546-.369,4.621-3.791,7.669-2.286.028-.008,23.938,18.83,24.314,21.424l1.473,34.565c1.6,11.006-35.8,8.8-35.8,8.8Z" fill="#FAA896"></path>
        <g opacity="0.1">
          <path d="M524.5,104.813a5.42,5.42,0,0,1,1.987-7.612,5.626,5.626,0,0,1,7.376,2.144l3.868,6.213-1.871-21.836c-.4-2.8.886-6.487,4.053-6.735,2.546-.369,4.621-3.791,7.669-2.286.028-.008,23.938,18.83,24.314,21.424l1.473,34.565c1.6,11.006-35.8,8.8-35.8,8.8Z" fill="#0c0c0c"></path>
        </g>
      </g>
      <g>
        <path d="M268.9,274.369s-2.147,32.216-9.395,43.9c-20.865,33.648-26.91,71.5-6.015,91.277S407.66,429.6,417.757,384.114c8.5-38.294-9.742-42.412-14.18-74-2.008-14.294-7.533-44.266-7.533-44.266" fill="#0a0a0a"></path>
        <path id="sk" d="M383.26,377.445c-.231-.03-2.783,42.33-51.994,38.637-34.068-2.552-46.215-38.7-47-38.7,3.674-.781,9.859-1.916,11.49-2.786,5.365-2.883,12-5.882,13.731-16.3,1-6-.694-36.722-.173-42.8l52.294,11.672c-.731,12.83-5.845,42.575,12.08,47.839C376.674,375.884,379.887,376.684,383.26,377.445Z" fill="#FAA896"></path>
        <path id="sh" d="M362.345,362.857a37.849,37.849,0,0,1-1.573-8.116,86.513,86.513,0,0,1,.342-18.878,57.335,57.335,0,0,1-28.9-12.662c-.971,3.586-6.311,19.256-4.832,22.664C330.174,352.307,343.307,362.857,362.345,362.857Z" fill="#0c0c0c" opacity="0.5"></path>
        <path d="M355.583,349.659c-20.618,2-47.294-6.252-52.82-33.708l-4.986-24.774c-5.527-27.456,4.414-52.616,30.266-57.82h0c25.852-5.2,49.654,13.166,55.18,40.622l2.208,10.968C387.551,295.482,392.368,346.1,355.583,349.659Z" fill="#FAA896"></path>
        <path d="M370.248,316.824a33.807,33.807,0,0,1-21.721,3.061,1.368,1.368,0,0,0-1.451,2.009c2.2,3.877,7.418,10.5,16.369,7.8,5.781-1.744,7.966-7.691,8.776-11.369A1.368,1.368,0,0,0,370.248,316.824Z" fill="#fff"></path>
        <circle cx="370.667" cy="283.794" r="3.237" fill="#0c0c0c"></circle>
        <circle cx="339.562" cy="289.24" r="3.237" fill="#0c0c0c"></circle>
        <ellipse cx="341.941" cy="309.173" rx="6.187" ry="4.538" transform="translate(-34.222 42.691) rotate(-6.804)" fill="#0c0c0c" opacity="0.1"></ellipse>
        <path d="M378.329,303.731c.3,2.485,3.294,4.172,6.688,3.772a8.533,8.533,0,0,0,1.723-.391c.158-2.963.167-5.814.08-8.453a7.8,7.8,0,0,0-2.883-.169C380.543,298.891,378.035,301.235,378.329,303.731Z" fill="#0c0c0c" opacity="0.1"></path>
        <path d="M363.336,311.412l.051-.008a29.031,29.031,0,0,0,3.1-.827c1.518-.508,3.5-1.342,3.228-2.715-.314-1.565-8-17.581-8.873-19.4a.665.665,0,0,0-1.2.577c3.277,6.821,8.555,18.035,8.767,19.089-.166.491-2.684,1.45-5.283,1.974a.665.665,0,0,0,.211,1.313Z" fill="#0c0c0c" opacity="0.5"></path>
        <path d="M277.15,300.07l23.176-4.527c17.507-7.321,22.473-37.832,22.473-37.832s21.607,20.576,73.245,8.134c0,0-11.217-72.086-87.465-50.205-24.586,7.055-42,32.115-39.41,65.307C270.984,304.208,277.15,300.07,277.15,300.07Z" fill="#0a0a0a"></path>
        <path d="M306.052,323.993c-7.856,1.581-15.917-5.542-17.5-13.4s3.916-13.471,11.772-15.052l5.108,4.449,7.372,22.641Z" fill="#FAA896"></path>
        <path d="M366.411,275.688a13.617,13.617,0,0,1,6.663-2.447,12.021,12.021,0,0,1,3.6.2,14.592,14.592,0,0,1,3.451,1.169l.035.016a.509.509,0,0,0,.433-.921,15.626,15.626,0,0,0-3.676-1.384,13.221,13.221,0,0,0-3.937-.349,15.018,15.018,0,0,0-7.5,2.5.764.764,0,1,0,.86,1.264l.018-.013Z" fill="#0c0c0c"></path>
        <path d="M345.241,278.614a15,15,0,0,0-7.888.558,13.227,13.227,0,0,0-3.5,1.829,15.638,15.638,0,0,0-2.866,2.685.509.509,0,0,0,.752.686l.027-.028a14.528,14.528,0,0,1,2.74-2.4,12,12,0,0,1,3.254-1.563,13.639,13.639,0,0,1,7.092-.289l.058.014a.764.764,0,0,0,.36-1.485Z" fill="#0c0c0c"></path>
        <path d="M300.341,295.163c15.58-5.8,20.749-16.558,22.342-24.564a39.039,39.039,0,0,0-.283-16.135l-.482.132a38.539,38.539,0,0,1,.271,15.924c-1.571,7.875-6.668,18.461-22.022,24.175Z" fill="#0c0c0c"></path>
      </g>
      <g>
        <path d="M122.97,177.961l-10.23-32.687a5.421,5.421,0,0,0-7.247-3.389,5.609,5.609,0,0,0-3.013,6.894l2.194,7.009L87.658,136.913c-1.855-2.132-5.5-3.561-7.749-1.322a5.417,5.417,0,0,0-1.221,6.633.356.356,0,0,0-.069.045.47.47,0,0,0-.038.05l-2.86-3.287a5.425,5.425,0,0,0-8.42.294,5.547,5.547,0,0,0,.376,6.973l1.217,1.4a.511.511,0,0,0-.042.171,5.419,5.419,0,0,0-7,.547,5.593,5.593,0,0,0-.094,7.594l3.024,3.474a.505.505,0,0,0-.446.106.485.485,0,0,0-.139.241,5.425,5.425,0,0,0-6.293,1.919,5.545,5.545,0,0,0,.457,6.866l25.513,29.313a27.3,27.3,0,0,0,29.477,7.886h0a18.01,18.01,0,0,0,11.321-22.407Z" fill="#FAA896"></path>
        <g opacity="0.2">
          <path d="M95.437,160.991a.5.5,0,0,1-.7-.045L78.581,142.975a.5.5,0,0,1,.744-.669l16.158,17.971a.5.5,0,0,1-.037.706Z" fill="#0c0c0c"></path>
        </g>
        <g opacity="0.2">
          <path d="M87.708,168.336a.5.5,0,0,1-.7-.045L68.978,148.235a.5.5,0,0,1,.037-.706.518.518,0,0,1,.707.038l18.032,20.055a.5.5,0,0,1-.037.706Z" fill="#0c0c0c"></path>
        </g>
        <g opacity="0.2">
          <path d="M79.382,176.34a.5.5,0,0,1-.7-.046L64.3,160.3a.5.5,0,1,1,.744-.669l14.385,16a.5.5,0,0,1-.038.706Z" fill="#0c0c0c"></path>
        </g>
      </g>
      <path d="M520.816,118.806,488.071,276.874,376.57,389.51l58.545,54.521L545.663,317.815l.663-.746a35.739,35.739,0,0,0,7.908-15.67l37.533-167.285Z" fill="#367cff"></path>
      <path id="b_1_b" d="M329.6,405.545C295.51,403.938,294.075,375,294.075,375s-16.892,1.091-28.121,2.611c-18.385,2.487-30.512,8.721-40.164,18.372-8.978,8.979-6.431,36.988-6.431,36.988l9.011,187.4H434.121l9.728-186.369s11.053-23.65-7.734-43.528C422.49,376.062,387.317,375,373.157,375,372.926,375,376.029,407.734,329.6,405.545Z" fill="#367cff"></path>
      <path d="M169.43,308.232,132.564,176.386,62.851,196.6l42.617,141.947a36.227,36.227,0,0,0,10.688,16.648l.7.613,112.289,98.7,50.727-61.861Z" fill="#367cff"></path>
      <g>
        <path d="M528.773,79.285l-1.687,1.15a39.5,39.5,0,0,1-54.893-10.376L456.4,46.9a2.815,2.815,0,0,1,.74-3.912L519.438.49a2.817,2.817,0,0,1,3.913.739l15.8,23.163A39.5,39.5,0,0,1,528.773,79.285Z" fill="#6D7ECE"></path>
        <path d="M497.617,34.689l9.463,5.34a.457.457,0,0,0,.425.013l9.764-4.769a.458.458,0,0,1,.649.5l-2.154,10.65a.457.457,0,0,0,.119.409l7.552,7.812a.457.457,0,0,1-.276.772L512.364,56.66a.457.457,0,0,0-.352.24l-5.1,9.6a.458.458,0,0,1-.82-.025l-4.517-9.882a.458.458,0,0,0-.337-.261l-10.7-1.881a.457.457,0,0,1-.23-.787l8-7.35a.46.46,0,0,0,.143-.4l-1.518-10.759A.458.458,0,0,1,497.617,34.689Z" fill="#fafafa"></path>
        <path d="M531.349,67.908l-7.9,5.386-1.6,1.088-6.3,4.3s42.924,39.229,40.878,86.846l18.83-12.843,1.6-1.088,20.425-13.931C552.2,122.189,531.349,67.908,531.349,67.908Z" fill="#6D7ECE"></path>
        <rect x="539.139" y="141.004" width="83.116" height="32.446" rx="3.692" transform="translate(12.368 354.539) rotate(-34.296)" fill="#6D7ECE"></rect>
        <path d="M483.425,88.3a20.639,20.639,0,1,1-1.846-35.191h0A20.635,20.635,0,0,1,483.425,88.3ZM464.194,60.2a13.419,13.419,0,1,0,13.949-.724h0a13.452,13.452,0,0,0-13.949.724Z" fill="#6D7ECE"></path>
        <path d="M553.281,40.663a20.792,20.792,0,0,1-2.337,1.379A20.641,20.641,0,1,1,532.333,5.193a20.642,20.642,0,0,1,20.948,35.47ZM534.057,12.551a13.413,13.413,0,1,0,19.553,5.02h0a13.412,13.412,0,0,0-18.019-5.926A13.614,13.614,0,0,0,534.057,12.551Z" fill="#6D7ECE"></path>
      </g>
      <path d="M548.956,104.5a4.437,4.437,0,0,1,.1-5.358c-.068-.038-.261-.082-.189-.2l-3.329,1.62a4.517,4.517,0,0,1-5.763-1.424,4.351,4.351,0,0,1,.906-5.764c-.041-.013-.063-.058-.1-.084l-1.369.666a4.46,4.46,0,0,1-5.513-1.2,4.357,4.357,0,0,1,1.559-6.558l3.157-1.537c-.011-.015-.032-.017-.041-.035s0-.047-.006-.07a4.35,4.35,0,0,1-4.9-2.327c-1.265-2.216.605-4.741,2.646-5.734l6.674-2.63a6.713,6.713,0,0,1,6.3.741c7.862,5.474,28.055,20.261,21.539,23.432l-16.042,7.806A4.715,4.715,0,0,1,548.956,104.5Z" fill="#FAA896"></path>
      <path d="M55.432,620.375H641.561a1,1,0,1,0,0-2H55.432a1,1,0,0,0,0,2Z" fill="#292a2e"></path>
    </g>
    <g>
      <rect x="28.587" y="402.685" width="8" height="28.869" transform="translate(-149.615 40.486) rotate(-21.349)" fill="#367cff"></rect>
      <rect x="614.352" y="329.29" width="28.869" height="8" transform="translate(-38.985 579.329) rotate(-48.152)" fill="#367cff"></rect>
      <rect x="552.291" y="413.541" width="8.001" height="28.869" transform="translate(-119.749 616.635) rotate(-53.165)" fill="#6D7ECE"></rect>
      <rect x="177.689" y="196.318" width="28.87" height="8" transform="translate(-85.07 186.095) rotate(-43.259)" fill="#367cff"></rect>
      <rect x="432.496" y="154.022" width="8" height="28.87" transform="translate(-25.881 239.965) rotate(-29.894)" fill="#367cff"></rect>
      <rect x="131.126" y="508.545" width="28.869" height="8" transform="translate(-365.574 362.109) rotate(-57.746)" fill="#6D7ECE"></rect>
      <rect x="520.235" y="567.568" width="28.869" height="8" transform="translate(-215.595 794.424) rotate(-63.454)" fill="#6D7ECE"></rect>
      <rect x="638.562" y="489.456" width="7.999" height="28.869" transform="translate(-117.634 205.739) rotate(-16.688)" fill="#367cff"></rect>
      <rect x="87.212" y="562.007" width="8" height="28.869" transform="matrix(0.557, -0.831, 0.831, 0.557, -438.344, 331.135)" fill="#367cff"></rect>
      <rect x="337.587" y="91.829" width="8" height="28.869" transform="translate(-7.515 184.377) rotate(-29.893)" fill="#6D7ECE"></rect>
    </g>
  </g>
</svg>