<svg width="85" height="115" viewBox="0 0 85 115" fill="none" xmlns="http://www.w3.org/2000/svg">
<g clip-path="url(#clip0_51_155)">
<path d="M54.5532 115C46.347 115 40.3573 113.023 36.5841 109.07C33.0888 105.724 31.0604 101.13 30.9424 96.2925C30.8999 94.8229 31.2405 93.3675 31.9307 92.0693C32.5745 90.9476 33.5044 90.0169 34.6256 89.3723C35.9288 88.7223 37.3651 88.384 38.8213 88.384C40.2776 88.384 41.7139 88.7223 43.0171 89.3723C44.1362 90.0144 45.0619 90.946 45.6968 92.0693C46.4069 93.3612 46.7602 94.8188 46.7205 96.2925C46.7938 98.0524 46.289 99.7879 45.2831 101.234C44.4447 102.414 43.2464 103.291 41.8678 103.733C43.216 105.45 45.1236 106.639 47.2583 107.094C49.6467 107.787 52.1202 108.144 54.6073 108.153C57.9 108.182 61.125 107.218 63.8615 105.386C66.7002 103.381 68.8173 100.514 69.8988 97.2107C71.2697 93.2793 71.9388 89.1375 71.8754 84.9744C71.9859 80.6341 71.2536 76.3136 69.719 72.2522C68.5648 69.0038 66.3737 66.2255 63.4839 64.3459C60.7978 62.6461 57.6798 61.7543 54.5012 61.7766C51.7314 62.0112 49.0606 62.9179 46.7205 64.418L40.951 67.3107V64.418L66.8797 29.6343H30.9424V65.7298C30.8409 68.3345 31.5299 70.9091 32.919 73.1149C33.5911 74.0761 34.5 74.8474 35.5577 75.3542C36.6154 75.861 37.7861 76.0861 38.9563 76.0076C41.1185 75.9638 43.2096 75.2269 44.9215 73.9054C46.862 72.4833 48.5506 70.7461 49.9171 68.7661C50.0401 68.4189 50.2669 68.118 50.5668 67.9041C50.8075 67.6961 51.1149 67.5813 51.4331 67.5807C52.0574 67.6377 52.6482 67.8889 53.1223 68.299C53.7229 68.9702 54.0498 69.8422 54.0384 70.7427C53.9691 71.3479 53.861 71.9481 53.715 72.5395C52.4384 75.6295 50.2985 78.2862 47.5514 80.1917C44.9999 81.9182 41.9864 82.8337 38.9058 82.818C31.1251 82.818 25.7348 81.2847 22.7351 78.218C21.1932 76.5231 20.0049 74.5376 19.2397 72.3777C18.4745 70.2179 18.1478 67.9271 18.2787 65.6395V29.6343H0V22.9278H18.3639V7.63635L14.1595 3.42906V0H26.3598L30.9424 2.37219V22.9278L78.4151 22.7834L83.1415 27.5271L54.0319 56.7781C55.7905 56.0708 57.6426 55.6229 59.53 55.4483C63.2657 55.6119 66.9104 56.6523 70.1695 58.4854C73.9435 60.2793 77.124 63.1176 79.3341 66.6639C81.3144 69.666 82.7161 73.0117 83.467 76.5288C84.0844 79.303 84.4156 82.1333 84.4553 84.9751C84.4746 90.3985 83.2449 95.7536 80.8617 100.625C78.6015 105.343 74.7976 109.147 70.08 111.407C65.2509 113.787 59.9367 115.016 54.5532 115Z" fill="#FBD87D"/>
</g>
<defs>
<clipPath id="clip0_51_155">
<rect width="84.4539" height="115" fill="white"/>
</clipPath>
</defs>
</svg>
